<svg width="130" height="34" viewBox="0 0 130 34" fill="none" xmlns="http://www.w3.org/2000/svg">
<path d="M0.00100671 10.5446C-0.0045197 10.3265 0.0350371 10.1096 0.117202 9.90744C0.199367 9.70532 0.32237 9.52233 0.478513 9.36993C0.6385 9.2173 0.827338 9.09814 1.03396 9.01943C1.24059 8.94072 1.46084 8.90403 1.68183 8.91152C1.89401 8.90576 2.10513 8.94345 2.30221 9.02229C2.49929 9.10112 2.67816 9.21942 2.82784 9.36993C2.97962 9.52462 3.09849 9.70845 3.17728 9.91034C3.25606 10.1122 3.29313 10.328 3.28625 10.5446V21.68C3.28625 24.475 3.92292 26.6206 5.19627 28.1168C5.82283 28.8566 6.61137 29.4422 7.50073 29.828C8.39009 30.2139 9.35639 30.3898 10.3247 30.342C11.3817 30.3519 12.4281 30.1303 13.3903 29.6926C14.3356 29.2588 15.1834 28.6383 15.8829 27.8685C16.6059 27.0616 17.1755 26.1295 17.5637 25.1181C17.9828 24.0307 18.1934 22.874 18.1844 21.7087V10.5923C18.1804 10.3753 18.2198 10.1596 18.3001 9.95788C18.3805 9.75619 18.5002 9.57254 18.6524 9.41768C18.7979 9.25591 18.9762 9.12707 19.1755 9.03978C19.3748 8.95249 19.5904 8.90876 19.808 8.91152C20.0269 8.90863 20.244 8.95225 20.4449 9.0395C20.6457 9.12676 20.8257 9.25566 20.9731 9.41768C21.1296 9.57029 21.2534 9.7531 21.3372 9.95502C21.4209 10.1569 21.4627 10.3738 21.4601 10.5923V31.9751C21.4621 32.205 21.4154 32.4327 21.3233 32.6434C21.2311 32.854 21.0955 33.0428 20.9253 33.1975C20.7756 33.3551 20.5946 33.4798 20.394 33.5636C20.1934 33.6475 19.9776 33.6887 19.7602 33.6845C19.5426 33.6905 19.3262 33.6501 19.1253 33.5661C18.9245 33.4822 18.7437 33.3565 18.5951 33.1975C18.4444 33.033 18.328 32.8403 18.2526 32.6304C18.1772 32.4206 18.1443 32.1978 18.1558 31.9751V29.11C17.1583 30.4261 15.9083 31.53 14.479 32.3571C13.0982 33.1587 11.5298 33.5804 9.93313 33.5795C8.51548 33.6003 7.11049 33.3102 5.81703 32.7295C4.60827 32.1595 3.54152 31.3277 2.69414 30.2942C1.78964 29.1609 1.11196 27.8639 0.698165 26.4742C0.217572 24.8567 -0.0174343 23.1763 0.00100671 21.489V10.5446Z" fill="#012222"/>
<path d="M38.6407 18.9487L46.596 31.0773C46.7215 31.2629 46.8082 31.4719 46.8508 31.6918C46.8935 31.9117 46.8913 32.138 46.8443 32.357C46.8053 32.5677 46.7232 32.768 46.6033 32.9455C46.4833 33.1229 46.328 33.2737 46.1471 33.3884C45.9712 33.5114 45.772 33.5968 45.5617 33.6395C45.3514 33.6822 45.1346 33.6813 44.9247 33.6367C44.711 33.6032 44.5074 33.5224 44.329 33.4001C44.1505 33.2779 44.0017 33.1172 43.8933 32.93L36.2054 21.2598L32.0416 25.1944V31.975C32.0478 32.1924 32.0095 32.4087 31.929 32.6107C31.8485 32.8127 31.7276 32.9961 31.5736 33.1497C31.4278 33.3013 31.2527 33.4218 31.0591 33.5038C30.8654 33.5859 30.6571 33.6279 30.4467 33.6272C30.2267 33.63 30.0084 33.5883 29.8049 33.5046C29.6014 33.4209 29.4169 33.2969 29.2625 33.1401C29.1032 32.9912 28.9767 32.8106 28.8912 32.61C28.8056 32.4094 28.763 32.1931 28.7659 31.975V1.69159C28.7603 1.47032 28.8016 1.25038 28.8872 1.04625C28.9728 0.842131 29.1007 0.658471 29.2625 0.50738C29.4228 0.351868 29.6129 0.230277 29.8213 0.149874C30.0297 0.0694708 30.2521 0.0319058 30.4754 0.0394244C30.6897 0.0347221 30.9027 0.0737977 31.1014 0.15426C31.3001 0.234723 31.4803 0.35488 31.6309 0.50738C31.7851 0.662719 31.9062 0.847808 31.9866 1.05139C32.0671 1.25497 32.1053 1.47279 32.0989 1.69159V20.8682L43.7882 9.54179C43.9309 9.38298 44.1065 9.25714 44.3028 9.17303C44.499 9.08892 44.7113 9.04856 44.9247 9.05474C45.1366 9.0631 45.3447 9.1139 45.5366 9.20412C45.7285 9.29434 45.9004 9.42215 46.042 9.57999C46.1855 9.72949 46.2974 9.90627 46.3713 10.0998C46.4451 10.2934 46.4793 10.4999 46.4718 10.7069C46.4903 10.9304 46.4588 11.1553 46.3795 11.3651C46.3002 11.5749 46.1751 11.7644 46.0134 11.9198L38.6407 18.9487Z" fill="#012222"/>
<path d="M55.6017 32.0226C55.6057 32.2386 55.5644 32.453 55.4805 32.652C55.3966 32.851 55.272 33.0303 55.1147 33.1782C54.8023 33.4844 54.3822 33.6559 53.9448 33.6559C53.5073 33.6559 53.0873 33.4844 52.7749 33.1782C52.6176 33.0303 52.4929 32.851 52.409 32.652C52.3252 32.453 52.2839 32.2386 52.2878 32.0226V1.66282C52.2764 1.43886 52.314 1.2151 52.3982 1.00724C52.4823 0.799368 52.6109 0.612421 52.7749 0.4595C53.0929 0.164149 53.5108 0 53.9448 0C54.3788 0 54.7967 0.164149 55.1147 0.4595C55.2737 0.608158 55.3994 0.788893 55.4833 0.989747C55.5673 1.1906 55.6077 1.407 55.6017 1.62461V32.0226Z" fill="#012222"/>
<path d="M64.0632 22.9693C64.1839 24.0425 64.508 25.083 65.0182 26.0349C66.0326 27.9197 67.6846 29.3822 69.6787 30.1605C70.7066 30.5644 71.8022 30.7686 72.9066 30.7622C74.2227 30.7812 75.5268 30.5106 76.7266 29.9695C77.8124 29.4738 78.7722 28.7393 79.5344 27.8207C79.7769 27.608 80.0693 27.4602 80.3843 27.391C80.6531 27.3456 80.929 27.3686 81.1865 27.4578C81.3469 27.513 81.4946 27.5998 81.6209 27.7129C81.7472 27.8261 81.8495 27.9634 81.9219 28.1168C82.0546 28.2783 82.1534 28.4649 82.2124 28.6655C82.2714 28.8661 82.2895 29.0765 82.2654 29.2841C82.2413 29.4918 82.1757 29.6925 82.0724 29.8742C81.969 30.056 81.8302 30.2151 81.664 30.342C80.6736 31.4517 79.4553 32.3345 78.0923 32.9301C77.3318 33.2671 76.538 33.5231 75.7239 33.6941C74.8065 33.8831 73.8719 33.9759 72.9352 33.971C71.2634 33.9899 69.6056 33.6648 68.0647 33.016C65.0557 31.7359 62.6597 29.3399 61.3796 26.3309C60.7303 24.7859 60.3959 23.1268 60.3959 21.4508C60.3959 19.7749 60.7303 18.1158 61.3796 16.5707C62.0169 15.0902 62.931 13.7451 64.0727 12.6074C65.2204 11.4714 66.5713 10.561 68.0551 9.92382C69.596 9.27793 71.2501 8.9453 72.9209 8.9453C74.5917 8.9453 76.2458 9.27793 77.7867 9.92382C80.7877 11.1765 83.1847 13.5461 84.4718 16.5325C85.1455 18.0578 85.4936 19.7069 85.4936 21.3744C85.5006 21.5836 85.4653 21.7921 85.3898 21.9874C85.3143 22.1827 85.2002 22.3607 85.0543 22.5109C84.9058 22.6662 84.726 22.7882 84.5268 22.8689C84.3276 22.9496 84.1135 22.987 83.8988 22.9788L64.0632 22.9693ZM82.1034 20.1806C81.9869 19.0671 81.663 17.9852 81.1483 16.9909C80.6575 16.02 79.9903 15.1489 79.181 14.4219C78.34 13.6797 77.3686 13.1001 76.316 12.7125C75.2409 12.2967 74.0974 12.0862 72.9448 12.0917C71.8003 12.0838 70.6652 12.2978 69.6023 12.722C68.5846 13.1266 67.6469 13.7087 66.8327 14.441C66.0216 15.1701 65.3543 16.0447 64.8654 17.0196C64.3425 18.0003 64.018 19.0745 63.9104 20.1806H82.1034Z" fill="#012222"/>
<path d="M93.6017 13.3046C94.7959 11.9564 96.2515 10.8647 97.8801 10.0957C99.5654 9.30616 101.405 8.90164 103.266 8.91151H103.477C103.711 8.895 103.947 8.9272 104.169 9.00608C104.391 9.08497 104.594 9.20883 104.766 9.36991C104.914 9.52633 105.031 9.71068 105.108 9.91231C105.185 10.1139 105.221 10.3288 105.215 10.5446C105.222 10.7683 105.18 10.9909 105.093 11.197C105.005 11.4031 104.874 11.5878 104.708 11.7383C104.374 12.0474 103.931 12.2121 103.477 12.1967H103.266C101.986 12.1928 100.718 12.4529 99.5418 12.9608C98.3908 13.4518 97.3464 14.1622 96.4667 15.0522C95.5802 15.9458 94.8706 16.9989 94.3752 18.156C93.8575 19.3627 93.5942 20.6631 93.6017 21.9761V31.975C93.6072 32.1952 93.5686 32.4142 93.4882 32.6192C93.4079 32.8242 93.2873 33.011 93.1337 33.1688C92.9854 33.3257 92.8061 33.45 92.6071 33.5338C92.4082 33.6177 92.194 33.6592 91.9782 33.6559C91.7581 33.6586 91.5398 33.6169 91.3363 33.5332C91.1328 33.4495 90.9483 33.3256 90.7939 33.1688C90.6329 33.0152 90.5056 32.8297 90.4201 32.6242C90.3346 32.4186 90.2928 32.1976 90.2973 31.975V10.5732C90.2937 10.3536 90.336 10.1357 90.4215 9.93341C90.507 9.73112 90.6339 9.54894 90.7939 9.39856C90.9483 9.24179 91.1328 9.11783 91.3363 9.03413C91.5398 8.95043 91.7581 8.90872 91.9782 8.91151C92.1958 8.90558 92.4122 8.94594 92.613 9.0299C92.8139 9.11386 92.9946 9.23952 93.1433 9.39856C93.4454 9.71412 93.6102 10.1365 93.6017 10.5732V13.3046Z" fill="#012222"/>
<path d="M104.212 21.4697C104.195 19.7889 104.52 18.1221 105.167 16.5705C105.799 15.0789 106.713 13.7234 107.86 12.5786C109.009 11.4421 110.364 10.5346 111.852 9.90455C113.385 9.25445 115.033 8.91943 116.699 8.91943C118.364 8.91943 120.012 9.25445 121.545 9.90455C123.019 10.5285 124.36 11.4261 125.499 12.5499C126.638 13.6711 127.547 15.0045 128.173 16.475C128.836 18.0013 129.19 19.6437 129.214 21.3074V31.9749C129.218 32.1994 129.178 32.4225 129.094 32.6309C129.01 32.8393 128.885 33.0287 128.727 33.1877C128.572 33.3474 128.387 33.4738 128.181 33.5592C127.976 33.6446 127.755 33.6872 127.533 33.6843C127.315 33.6897 127.098 33.6481 126.897 33.5624C126.696 33.4768 126.515 33.349 126.368 33.1877C126.084 32.85 125.944 32.4148 125.977 31.9749V29.721C124.82 31 123.434 32.0498 121.889 32.8153C120.314 33.6088 118.572 34.0148 116.808 33.9995C115.14 34.0147 113.486 33.6897 111.947 33.0445C110.459 32.4109 109.104 31.5003 107.955 30.3609C106.811 29.2215 105.897 27.8727 105.262 26.3881C104.577 24.8386 104.219 23.1641 104.212 21.4697ZM107.526 21.4697C107.519 22.6936 107.762 23.9059 108.242 25.0319C108.695 26.1117 109.342 27.0991 110.152 27.9447C110.973 28.7792 111.945 29.45 113.017 29.9216C114.164 30.4067 115.396 30.6567 116.641 30.6567C117.886 30.6567 119.119 30.4067 120.266 29.9216C122.465 28.9932 124.211 27.2368 125.127 25.0319C125.652 23.9158 125.942 22.703 125.977 21.4697C125.988 20.2341 125.747 19.0091 125.27 17.8694C124.822 16.7727 124.163 15.7753 123.328 14.9345C122.494 14.0937 121.502 13.4261 120.409 12.9701C118.097 12.0151 115.501 12.0151 113.189 12.9701C112.099 13.4354 111.108 14.103 110.267 14.9375C109.431 15.7832 108.76 16.7775 108.29 17.8694C107.793 19.005 107.533 20.2301 107.526 21.4697Z" fill="#012222"/>
</svg>
